<svg width="522" height="120" viewBox="0 0 522 120" fill="none" xmlns="http://www.w3.org/2000/svg">
<rect width="120" height="120" rx="30" fill="#22CF95"/>
<path d="M60.0001 64.1075V21L50.3249 50.7921L60.0001 64.1075Z" fill="white"/>
<path d="M101 50.7925L75.6143 69.1851L60 64.1079L69.6748 50.7925H101Z" fill="white"/>
<path d="M60 64.1077L85.2897 98.9768L60 80.5843V64.1077Z" fill="white"/>
<path d="M60 64.1077L34.7103 98.9768L60 80.5843V64.1077Z" fill="white"/>
<path d="M60 64.1077L34.7103 98.9768L44.3856 69.1848L60 64.1077Z" fill="white"/>
<path d="M60 64.1077L19 50.7922L44.3855 69.1848L60 64.1077Z" fill="white"/>
<path d="M60 64.1077L19 50.7922H50.3248L60 64.1077Z" fill="white"/>
<path d="M518.79 45.248C520.212 45.248 521.18 46.69 520.641 48.0058L499.509 99.6199C499.201 100.371 498.47 100.862 497.658 100.862H495.493C494.071 100.862 493.104 99.4206 493.642 98.1048L499.657 83.4021C499.855 82.9175 499.855 82.3745 499.658 81.8897L485.84 48.0032C485.304 46.6877 486.272 45.248 487.692 45.248H490.316C491.142 45.248 491.883 45.7556 492.181 46.5256L501.678 71.0417C502.339 72.7487 504.756 72.7439 505.411 71.0344L514.792 46.5329C515.088 45.759 515.831 45.248 516.66 45.248H518.79Z" fill="#001F3F"/>
<path d="M440.227 64.016C440.227 60.152 441.009 56.771 442.573 53.873C444.137 50.929 446.276 48.652 448.99 47.042C451.75 45.432 454.809 44.627 458.167 44.627C461.479 44.627 464.354 45.34 466.792 46.766C467.467 47.1606 468.094 47.5834 468.674 48.0344C469.828 48.9325 472.243 48.126 472.243 46.6638C472.243 45.8818 472.877 45.248 473.659 45.248H476.591C477.696 45.248 478.591 46.1434 478.591 47.248V81.06C478.591 82.1645 477.696 83.06 476.591 83.06H473.704C472.897 83.06 472.243 82.4059 472.243 81.599C472.243 80.0957 469.792 79.2762 468.611 80.2063C468.008 80.6809 467.356 81.1261 466.654 81.542C464.216 82.968 461.364 83.681 458.098 83.681C454.74 83.681 451.704 82.853 448.99 81.197C446.276 79.541 444.137 77.218 442.573 74.228C441.009 71.238 440.227 67.834 440.227 64.016ZM472.243 64.085C472.243 61.233 471.668 58.749 470.518 56.633C469.368 54.517 467.804 52.907 465.826 51.803C463.894 50.653 461.755 50.078 459.409 50.078C457.063 50.078 454.924 50.63 452.992 51.734C451.06 52.838 449.519 54.448 448.369 56.564C447.219 58.68 446.644 61.164 446.644 64.016C446.644 66.914 447.219 69.444 448.369 71.606C449.519 73.722 451.06 75.355 452.992 76.505C454.924 77.609 457.063 78.161 459.409 78.161C461.755 78.161 463.894 77.609 465.826 76.505C467.804 75.355 469.368 73.722 470.518 71.606C471.668 69.444 472.243 66.937 472.243 64.085Z" fill="#001F3F"/>
<path d="M428.944 55.7752C427.926 56.6409 428.058 59.5892 429.099 60.428C430.571 61.578 431.721 63.004 432.549 64.706C433.423 66.408 433.86 68.225 433.86 70.157C433.86 72.595 433.239 74.803 431.997 76.781C430.755 78.713 428.938 80.254 426.546 81.404C424.2 82.508 421.417 83.06 418.197 83.06H402.257C401.152 83.06 400.257 82.1646 400.257 81.06V36.967C400.257 35.8625 401.152 34.967 402.257 34.967H417.507C420.773 34.967 423.556 35.519 425.856 36.623C428.156 37.681 429.881 39.13 431.031 40.97C432.181 42.81 432.756 44.88 432.756 47.18C432.756 50.032 431.974 52.401 430.41 54.287C429.965 54.8266 429.476 55.3227 428.944 55.7752ZM406.536 53.736C406.536 54.8406 407.431 55.736 408.536 55.736H417.093C420.037 55.736 422.314 55.046 423.924 53.666C425.534 52.286 426.339 50.377 426.339 47.939C426.339 45.501 425.534 43.592 423.924 42.212C422.314 40.832 419.991 40.142 416.955 40.142H408.536C407.431 40.142 406.536 41.0375 406.536 42.142V53.736ZM417.645 77.885C420.773 77.885 423.211 77.149 424.959 75.677C426.707 74.205 427.581 72.158 427.581 69.536C427.581 66.868 426.661 64.775 424.821 63.257C422.981 61.693 420.52 60.911 417.438 60.911H408.536C407.431 60.911 406.536 61.8065 406.536 62.911V75.885C406.536 76.9896 407.431 77.885 408.536 77.885H417.645Z" fill="#001F3F"/>
<path d="M391.931 44.5581C393.365 44.5581 394.333 46.0217 393.772 47.3408L371.323 100.128C371.009 100.866 370.284 101.345 369.482 101.345H361.204C359.752 101.345 358.784 99.8469 359.381 98.5233L366.583 82.5438C366.811 82.037 366.818 81.4581 366.603 80.9458L352.447 47.3344C351.892 46.0161 352.86 44.5581 354.29 44.5581H363.064C363.901 44.5581 364.65 45.0795 364.94 45.8647L371.475 63.5441C372.12 65.2886 374.588 65.2855 375.228 63.5394L381.709 45.8694C381.998 45.0818 382.748 44.5581 383.587 44.5581H391.931Z" fill="#001F3F"/>
<path d="M347.053 73.0551C348.157 73.0551 349.053 73.9505 349.053 75.0551V81.0601C349.053 82.1646 348.157 83.0601 347.053 83.0601H343.05C338.772 83.0601 335.437 82.0251 333.045 79.9551C330.653 77.8391 329.457 74.4121 329.457 69.6741V56.3561C329.457 55.2515 328.561 54.3561 327.457 54.3561H326.765C325.66 54.3561 324.765 53.4606 324.765 52.3561V46.5581C324.765 45.4535 325.66 44.5581 326.765 44.5581H327.457C328.561 44.5581 329.457 43.6626 329.457 42.5581V37.1741C329.457 36.0695 330.352 35.1741 331.457 35.1741H339.256C340.36 35.1741 341.256 36.0695 341.256 37.1741V42.5581C341.256 43.6626 342.151 44.5581 343.256 44.5581H346.984C348.088 44.5581 348.984 45.4535 348.984 46.5581V52.3561C348.984 53.4606 348.088 54.3561 346.984 54.3561H343.256C342.151 54.3561 341.256 55.2515 341.256 56.3561V69.8121C341.256 70.9621 341.532 71.7901 342.084 72.2961C342.636 72.8021 343.556 73.0551 344.844 73.0551H347.053Z" fill="#001F3F"/>
<path d="M317.043 32C318.148 32 319.043 32.8954 319.043 34V81.06C319.043 82.1646 318.148 83.06 317.043 83.06H309.244C308.14 83.06 307.244 82.1646 307.244 81.06V34C307.244 32.8954 308.14 32 309.244 32H317.043Z" fill="#001F3F"/>
<path d="M258.067 63.7401C258.067 59.7841 258.803 56.3111 260.275 53.3211C261.793 50.3311 263.84 48.0311 266.416 46.4211C268.992 44.8111 271.867 44.0061 275.041 44.0061C277.755 44.0061 280.124 44.5581 282.148 45.6621C282.841 46.0316 283.479 46.4397 284.064 46.8864C285.027 47.6227 286.909 46.9731 286.909 45.7606C286.909 45.0965 287.447 44.5581 288.112 44.5581H296.708C297.813 44.5581 298.708 45.4535 298.708 46.5581V81.0601C298.708 82.1647 297.813 83.0601 296.708 83.0601H288.144C287.462 83.0601 286.909 82.5071 286.909 81.8249C286.909 80.5913 285.04 79.9375 284.06 80.6879C283.455 81.1518 282.794 81.5746 282.079 81.9561C280.055 83.0601 277.686 83.6121 274.972 83.6121C271.844 83.6121 268.992 82.8071 266.416 81.1971C263.84 79.5411 261.793 77.2181 260.275 74.2281C258.803 71.1921 258.067 67.6961 258.067 63.7401ZM286.909 63.8091C286.909 60.8651 286.081 58.5421 284.425 56.8401C282.815 55.1381 280.837 54.2871 278.491 54.2871C276.145 54.2871 274.144 55.1381 272.488 56.8401C270.878 58.4961 270.073 60.7961 270.073 63.7401C270.073 66.6841 270.878 69.0301 272.488 70.7781C274.144 72.4801 276.145 73.3311 278.491 73.3311C280.837 73.3311 282.815 72.4801 284.425 70.7781C286.081 69.0761 286.909 66.7531 286.909 63.8091Z" fill="#001F3F"/>
<path d="M253.123 44.5581C254.556 44.5581 255.524 46.0217 254.963 47.3408L232.514 100.128C232.2 100.866 231.476 101.345 230.674 101.345H222.396C220.944 101.345 219.976 99.8469 220.572 98.5233L227.774 82.5438C228.003 82.037 228.01 81.4581 227.794 80.9458L213.639 47.3344C213.083 46.0161 214.051 44.5581 215.482 44.5581H224.255C225.093 44.5581 225.841 45.0795 226.131 45.8647L232.666 63.5441C233.311 65.2886 235.779 65.2855 236.42 63.5394L242.9 45.8694C243.189 45.0818 243.939 44.5581 244.778 44.5581H253.123Z" fill="#001F3F"/>
<path d="M190.409 83.6121C186.637 83.6121 183.233 82.8071 180.197 81.1971C177.207 79.5871 174.838 77.2871 173.09 74.2971C171.388 71.3071 170.537 67.8111 170.537 63.8091C170.537 59.8531 171.411 56.3801 173.159 53.3901C174.907 50.3541 177.299 48.0311 180.335 46.4211C183.371 44.8111 186.775 44.0061 190.547 44.0061C194.319 44.0061 197.723 44.8111 200.759 46.4211C203.795 48.0311 206.187 50.3541 207.935 53.3901C209.683 56.3801 210.557 59.8531 210.557 63.8091C210.557 67.7651 209.66 71.2611 207.866 74.2971C206.118 77.2871 203.703 79.5871 200.621 81.1971C197.585 82.8071 194.181 83.6121 190.409 83.6121ZM190.409 73.4001C192.663 73.4001 194.572 72.5721 196.136 70.9161C197.746 69.2601 198.551 66.8911 198.551 63.8091C198.551 60.7271 197.769 58.3581 196.205 56.7021C194.687 55.0461 192.801 54.2181 190.547 54.2181C188.247 54.2181 186.338 55.0461 184.82 56.7021C183.302 58.3121 182.543 60.6811 182.543 63.8091C182.543 66.8911 183.279 69.2601 184.751 70.9161C186.269 72.5721 188.155 73.4001 190.409 73.4001Z" fill="#001F3F"/>
<path d="M151.799 71.9521C151.799 73.0566 152.694 73.9521 153.799 73.9521H165.255C166.36 73.9521 167.255 74.8475 167.255 75.9521V81.0601C167.255 82.1646 166.36 83.0601 165.255 83.0601H142C140.895 83.0601 140 82.1646 140 81.0601V36.6221C140 35.5175 140.895 34.6221 142 34.6221H149.799C150.904 34.6221 151.799 35.5175 151.799 36.6221V71.9521Z" fill="#001F3F"/>
</svg>
